<svg xmlns="http://www.w3.org/2000/svg" width="112.5" viewBox="0 0 112.5 37.5" height="37.5" version="1.0"><defs><clipPath id="a"><path d="M 0.492188 8 L 18 8 L 18 28 L 0.492188 28 Z M 0.492188 8"/></clipPath><clipPath id="b"><path d="M 96 8 L 111.511719 8 L 111.511719 28 L 96 28 Z M 96 8"/></clipPath></defs><g clip-path="url(#a)"><g><g><g><path d="M 3.519531 0 L 4.945312 -4.171875 L 12.660156 -4.171875 L 14.058594 0 L 17.355469 0 L 10.539062 -19.054688 L 7.042969 -19.054688 L 0.226562 0 Z M 8.789062 -15.65625 L 11.710938 -6.941406 L 5.867188 -6.941406 Z M 8.789062 -15.65625" transform="translate(.493 27.532)"/></g></g></g></g><g><g><g><path d="M 9.464844 0 L 9.464844 -16.207031 L 15.507812 -16.207031 L 15.507812 -19.054688 L 0.300781 -19.054688 L 0.300781 -16.207031 L 6.292969 -16.207031 L 6.292969 0 Z M 9.464844 0" transform="translate(18.074 27.532)"/></g></g></g><g><g><g><path d="M 3.519531 0 L 4.945312 -4.171875 L 12.660156 -4.171875 L 14.058594 0 L 17.355469 0 L 10.539062 -19.054688 L 7.042969 -19.054688 L 0.226562 0 Z M 8.789062 -15.65625 L 11.710938 -6.941406 L 5.867188 -6.941406 Z M 8.789062 -15.65625" transform="translate(33.857 27.532)"/></g></g></g><g><g><g><path d="M 19.304688 -9.539062 C 19.304688 -14.785156 16.382812 -19.355469 10.1875 -19.355469 C 3.972656 -19.355469 1.074219 -14.785156 1.074219 -9.539062 C 1.074219 -4.296875 3.972656 0.324219 10.1875 0.324219 C 11.539062 0.324219 12.734375 0.101562 13.785156 -0.300781 L 15.382812 2.171875 L 18.929688 2.171875 L 16.332031 -1.871094 C 18.332031 -3.722656 19.304688 -6.519531 19.304688 -9.539062 Z M 4.34375 -9.539062 C 4.34375 -13.636719 6.441406 -16.53125 10.1875 -16.53125 C 13.960938 -16.53125 16.03125 -13.636719 16.03125 -9.539062 C 16.03125 -5.417969 13.960938 -2.523438 10.1875 -2.523438 C 6.441406 -2.523438 4.34375 -5.417969 4.34375 -9.539062 Z M 4.34375 -9.539062" transform="translate(51.437 27.532)"/></g></g></g><g><g><g><path d="M 0.773438 -20.152344 C 1.75 -20.152344 2.597656 -20.878906 2.597656 -21.875 C 2.597656 -22.875 1.75 -23.625 0.773438 -23.625 C -0.226562 -23.625 -1.050781 -22.898438 -1.050781 -21.875 C -1.050781 -20.851562 -0.226562 -20.152344 0.773438 -20.152344 Z M 5.96875 -20.152344 C 6.941406 -20.152344 7.765625 -20.878906 7.765625 -21.875 C 7.765625 -22.875 6.941406 -23.625 5.96875 -23.625 C 4.96875 -23.625 4.121094 -22.898438 4.121094 -21.875 C 4.121094 -20.851562 4.96875 -20.152344 5.96875 -20.152344 Z M 4.945312 0 L 4.945312 -19.054688 L 1.773438 -19.054688 L 1.773438 0 Z M 4.945312 0" transform="translate(71.865 27.532)"/></g></g></g><g><g><g><path d="M 3.519531 0 L 4.945312 -4.171875 L 12.660156 -4.171875 L 14.058594 0 L 17.355469 0 L 10.539062 -19.054688 L 7.042969 -19.054688 L 0.226562 0 Z M 8.789062 -15.65625 L 11.710938 -6.941406 L 5.867188 -6.941406 Z M 8.789062 -15.65625" transform="translate(78.632 27.532)"/></g></g></g><g clip-path="url(#b)"><g><g><g><path d="M 9.464844 0 L 9.464844 -16.207031 L 15.507812 -16.207031 L 15.507812 -19.054688 L 0.300781 -19.054688 L 0.300781 -16.207031 L 6.292969 -16.207031 L 6.292969 0 Z M 9.464844 0" transform="translate(96.213 27.532)"/></g></g></g></g></svg>