<svg xmlns="http://www.w3.org/2000/svg" width="187.5" viewBox="0 0 187.5 75" height="75" version="1.0"><defs><clipPath id="a"><path d="M 161 20 L 187 20 L 187 53 L 161 53 Z M 161 20"/></clipPath></defs><g><g><g><path d="M 5.921875 0 L 8.3125 -7.011719 L 21.289062 -7.011719 L 23.640625 0 L 29.183594 0 L 17.71875 -32.039062 L 11.839844 -32.039062 L 0.378906 0 Z M 14.78125 -26.328125 L 19.691406 -11.671875 L 9.867188 -11.671875 Z M 14.78125 -26.328125" transform="translate(0 52.642)"/></g></g></g><g><g><g><path d="M 15.914062 0 L 15.914062 -27.25 L 26.074219 -27.25 L 26.074219 -32.039062 L 0.503906 -32.039062 L 0.503906 -27.25 L 10.582031 -27.25 L 10.582031 0 Z M 15.914062 0" transform="translate(29.56 52.642)"/></g></g></g><g><g><g><path d="M 5.921875 0 L 8.3125 -7.011719 L 21.289062 -7.011719 L 23.640625 0 L 29.183594 0 L 17.71875 -32.039062 L 11.839844 -32.039062 L 0.378906 0 Z M 14.78125 -26.328125 L 19.691406 -11.671875 L 9.867188 -11.671875 Z M 14.78125 -26.328125" transform="translate(56.098 52.642)"/></g></g></g><g><g><g><path d="M 32.457031 -16.039062 C 32.457031 -24.859375 27.546875 -32.542969 17.132812 -32.542969 C 6.675781 -32.542969 1.804688 -24.859375 1.804688 -16.039062 C 1.804688 -7.222656 6.675781 0.546875 17.132812 0.546875 C 19.398438 0.546875 21.414062 0.167969 23.179688 -0.503906 L 25.867188 3.652344 L 31.828125 3.652344 L 27.460938 -3.148438 C 30.820312 -6.257812 32.457031 -10.960938 32.457031 -16.039062 Z M 7.304688 -16.039062 C 7.304688 -22.925781 10.832031 -27.796875 17.132812 -27.796875 C 23.472656 -27.796875 26.957031 -22.925781 26.957031 -16.039062 C 26.957031 -9.113281 23.472656 -4.242188 17.132812 -4.242188 C 10.832031 -4.242188 7.304688 -9.113281 7.304688 -16.039062 Z M 7.304688 -16.039062" transform="translate(85.658 52.642)"/></g></g></g><g><g><g><path d="M 1.300781 -33.886719 C 2.9375 -33.886719 4.367188 -35.105469 4.367188 -36.785156 C 4.367188 -38.464844 2.9375 -39.722656 1.300781 -39.722656 C -0.378906 -39.722656 -1.761719 -38.503906 -1.761719 -36.785156 C -1.761719 -35.0625 -0.378906 -33.886719 1.300781 -33.886719 Z M 10.035156 -33.886719 C 11.671875 -33.886719 13.058594 -35.105469 13.058594 -36.785156 C 13.058594 -38.464844 11.671875 -39.722656 10.035156 -39.722656 C 8.355469 -39.722656 6.929688 -38.503906 6.929688 -36.785156 C 6.929688 -35.0625 8.355469 -33.886719 10.035156 -33.886719 Z M 8.3125 0 L 8.3125 -32.039062 L 2.980469 -32.039062 L 2.980469 0 Z M 8.3125 0" transform="translate(120.005 52.642)"/></g></g></g><g><g><g><path d="M 5.921875 0 L 8.3125 -7.011719 L 21.289062 -7.011719 L 23.640625 0 L 29.183594 0 L 17.71875 -32.039062 L 11.839844 -32.039062 L 0.378906 0 Z M 14.78125 -26.328125 L 19.691406 -11.671875 L 9.867188 -11.671875 Z M 14.78125 -26.328125" transform="translate(131.384 52.642)"/></g></g></g><g clip-path="url(#a)"><g><g><g><path d="M 15.914062 0 L 15.914062 -27.25 L 26.074219 -27.25 L 26.074219 -32.039062 L 0.503906 -32.039062 L 0.503906 -27.25 L 10.582031 -27.25 L 10.582031 0 Z M 15.914062 0" transform="translate(160.945 52.642)"/></g></g></g></g></svg>